<svg viewBox="0 0 800 600" xmlns="http://www.w3.org/2000/svg" preserveAspectRatio="xMidYMid slice">
  <defs>
    <radialGradient id="spot" cx="50%" cy="30%" r="70%">
      <stop offset="0%" stop-color="#272013"/>
      <stop offset="55%" stop-color="#141414"/>
      <stop offset="100%" stop-color="#070707"/>
    </radialGradient>
    <linearGradient id="g2" x1="0" y1="0" x2="1" y2="1">
      <stop offset="0%" stop-color="#F4D67A"/><stop offset="100%" stop-color="#B8860B"/>
    </linearGradient>
  </defs>
  <rect width="800" height="600" fill="url(#spot)"/>
  <!-- spotlight cone -->
  <polygon points="400,0 250,520 550,520" fill="#D4AF37" opacity="0.07"/>
  <ellipse cx="400" cy="470" rx="300" ry="40" fill="#000" opacity="0.55"/>

  <g transform="translate(150 250)">
    <path d="M30,180 C45,140 100,132 150,130 L215,132 C238,104 280,92 332,92 L412,92 C480,95 520,120 556,150 L616,160 C668,168 668,182 668,198 L668,220 C668,228 662,232 654,232 L48,232 C40,232 30,225 30,216 Z" fill="#101010" stroke="url(#g2)" stroke-opacity="0.55" stroke-width="2.5"/>
    <path d="M242,108 C282,92 318,92 352,92 L406,92 L414,132 L228,132 Z" fill="#1a1a1a"/>
    <path d="M418,94 L482,98 C516,104 534,120 550,140 L440,132 Z" fill="#1a1a1a"/>
    <circle cx="186" cy="232" r="46" fill="#0a0a0a" stroke="url(#g2)" stroke-width="3"/>
    <circle cx="186" cy="232" r="18" fill="#1c1c1c"/>
    <circle cx="524" cy="232" r="46" fill="#0a0a0a" stroke="url(#g2)" stroke-width="3"/>
    <circle cx="524" cy="232" r="18" fill="#1c1c1c"/>
  </g>
  <text x="400" y="560" text-anchor="middle" font-family="'Segoe UI', Arial, sans-serif" font-size="20" font-weight="700" letter-spacing="6" fill="#D4AF37" opacity="0.85">DRIVEX MOTORS</text>
</svg>
